# xmcd CD database file
#
# Track frame offsets:
#	182
#	12787
#	25942
#	39567
#	52425
#	63587
#	76615
#	89820
#	99540
#	112600
#	125747
#	139450
#	151452
#	165452
#	177530
#	188392
#	200207
#	213855
#	226320
#	237637
#	248330
#	259657
#	269905
#	279390
#	288970
#	298290
#
# Disc length: 4128 seconds
#
# Revision: 12
# Processed by: cddbd v1.5.2PL0 Copyright (c) Steve Scherf et al.
# Submitted via: CDex 1.99.1
#
DISCID=87101e1a
DTITLE=T-Bone Walker - T-Bone Walker The Complete Imperial Recordings, 1950-1954  [CD2]
DYEAR=1991
DGENRE=Blues
TTITLE0=Blues is a Woman
TTITLE1=I Got the Blues
TTITLE2=Here in the Dark
TTITLE3=Blue Mood
TTITLE4=Every Time
TTITLE5=I Miss You Baby
TTITLE6=Lollie Lou
TTITLE7=Party Girl
TTITLE8=Love is Just a Gamble
TTITLE9=High Society
TTITLE10=Long Distance Blues
TTITLE11=Got No Use for You
TTITLE12=I'm Still in Love with You
TTITLE13=Railroad Station Blues
TTITLE14=Vida Lee
TTITLE15=My Baby is Now on My Mind
TTITLE16=Doin' Time
TTITLE17=Bye Bye Baby
TTITLE18=When the Sun Goes Down
TTITLE19=Pony Tail
TTITLE20=Wanderin' Heart
TTITLE21=I'll Always Be in Love with You
TTITLE22=I'll Understand
TTITLE23=Hard Way
TTITLE24=Teen Age Baby
TTITLE25=Strugglin' Blues
EXTD=YEAR: 1991
EXTT0=
EXTT1=
EXTT2=
EXTT3=
EXTT4=
EXTT5=
EXTT6=
EXTT7=
EXTT8=
EXTT9=
EXTT10=
EXTT11=
EXTT12=
EXTT13=
EXTT14=
EXTT15=
EXTT16=
EXTT17=
EXTT18=
EXTT19=
EXTT20=
EXTT21=
EXTT22=
EXTT23=
EXTT24=
EXTT25=
PLAYORDER=
